<?xml version="1.0" encoding="UTF-8" standalone="no"?>
<!-- Created with Inkscape (http://www.inkscape.org/) -->

<svg
   xmlns:dc="http://purl.org/dc/elements/1.1/"
   xmlns:cc="http://creativecommons.org/ns#"
   xmlns:rdf="http://www.w3.org/1999/02/22-rdf-syntax-ns#"
   xmlns:svg="http://www.w3.org/2000/svg"
   xmlns="http://www.w3.org/2000/svg"
   xmlns:sodipodi="http://sodipodi.sourceforge.net/DTD/sodipodi-0.dtd"
   xmlns:inkscape="http://www.inkscape.org/namespaces/inkscape"
   width="210mm"
   height="297mm"
   viewBox="0 0 210 297"
   version="1.1"
   id="svg8"
   inkscape:version="0.92.1 unknown"
   sodipodi:docname="drawing2.svg">
  <defs
     id="defs2">
    <inkscape:perspective
       sodipodi:type="inkscape:persp3d"
       inkscape:vp_x="0 : 103.89881 : 1"
       inkscape:vp_y="0 : 1000 : 0"
       inkscape:vp_z="209.24405 : 94.827379 : 1"
       inkscape:persp3d-origin="105 : 99 : 1"
       id="perspective4509" />
  </defs>
  <sodipodi:namedview
     id="base"
     pagecolor="#ffffff"
     bordercolor="#666666"
     borderopacity="1.0"
     inkscape:pageopacity="0.0"
     inkscape:pageshadow="2"
     inkscape:zoom="0.7"
     inkscape:cx="351.81544"
     inkscape:cy="551.73629"
     inkscape:document-units="mm"
     inkscape:current-layer="layer1"
     showgrid="false"
     inkscape:window-width="1920"
     inkscape:window-height="1149"
     inkscape:window-x="0"
     inkscape:window-y="0"
     inkscape:window-maximized="1" />
  <metadata
     id="metadata5">
    <rdf:RDF>
      <cc:Work
         rdf:about="">
        <dc:format>image/svg+xml</dc:format>
        <dc:type
           rdf:resource="http://purl.org/dc/dcmitype/StillImage" />
        <dc:title />
      </cc:Work>
    </rdf:RDF>
  </metadata>
  <g
     inkscape:label="Layer 1"
     inkscape:groupmode="layer"
     id="layer1">
    <text
       xml:space="preserve"
       style="font-style:normal;font-weight:normal;font-size:10.58333302px;line-height:125%;font-family:sans-serif;letter-spacing:0px;word-spacing:0px;fill:#000000;fill-opacity:1;stroke:none;stroke-width:0.26458332px;stroke-linecap:butt;stroke-linejoin:miter;stroke-opacity:1"
       x="68.413689"
       y="31.28274"
       id="text4487"><tspan
         sodipodi:role="line"
         id="tspan4485"
         x="68.413689"
         y="31.28274"
         style="stroke-width:0.26458332px">What is <tspan
   style="font-weight:bold"
   id="tspan4489">Full?</tspan></tspan></text>
    <path
       sodipodi:type="star"
       style="opacity:1;fill:#ff00ec;fill-opacity:1;fill-rule:nonzero;stroke:#000000;stroke-width:0.86399996;stroke-miterlimit:4;stroke-dasharray:none;stroke-opacity:1"
       id="path4497"
       sodipodi:sides="5"
       sodipodi:cx="42.333332"
       sodipodi:cy="71.726189"
       sodipodi:r1="37.799507"
       sodipodi:r2="18.899755"
       sodipodi:arg1="0.70754167"
       sodipodi:arg2="1.3358602"
       inkscape:flatsided="false"
       inkscape:rounded="0"
       inkscape:randomized="0"
       d="M 71.059521,96.29464 46.732834,90.106753 27.844227,106.63849 26.211897,81.59027 4.6523835,68.734725 27.970236,59.441962 33.53433,34.965064 49.577885,54.270038 74.576198,51.998028 61.173808,73.221921 Z"
       inkscape:transform-center-x="4.1504699"
       inkscape:transform-center-y="-1.4476206"
       transform="matrix(1.5264459,0,0,1.5659864,1.8607554,-18.136711)" />
    <text
       xml:space="preserve"
       style="font-style:normal;font-weight:normal;font-size:7.62657452px;line-height:125%;font-family:sans-serif;letter-spacing:0px;word-spacing:0px;fill:#000000;fill-opacity:1;stroke:none;stroke-width:0.19066435px;stroke-linecap:butt;stroke-linejoin:miter;stroke-opacity:1"
       x="65.354126"
       y="48.686405"
       id="text4501"
       transform="scale(0.5469076,1.8284624)"><tspan
         sodipodi:role="line"
         id="tspan4499"
         x="65.354126"
         y="48.686405"
         style="stroke-width:0.19066435px">What is developed on</tspan><tspan
         sodipodi:role="line"
         x="65.354126"
         y="58.219624"
         style="stroke-width:0.19066435px"
         id="tspan4505">both the front and back end</tspan></text>
    <g
       sodipodi:type="inkscape:box3d"
       id="g4511"
       style="opacity:1;fill:#ff00ec;fill-opacity:1;fill-rule:nonzero;stroke:#000000;stroke-width:3.26551175;stroke-miterlimit:4;stroke-dasharray:none;stroke-opacity:1"
       inkscape:perspectiveID="#perspective4509"
       inkscape:corner0="2.4295713 : 0.019359221 : 0 : 1"
       inkscape:corner7="1.2223623 : -0.07090244 : 0.25 : 1">
      <path
         sodipodi:type="inkscape:box3dside"
         id="path4513"
         style="fill:#353564;fill-rule:evenodd;stroke:none;stroke-width:1px;stroke-linecap:butt;stroke-linejoin:round;stroke-opacity:1"
         inkscape:box3dsidetype="6"
         d="m 30.616072,188.8848 v 26.31864 l 12.136467,-0.88534 v -24.53049 z"
         points="30.616072,215.20344 42.752539,214.3181 42.752539,189.78761 30.616072,188.8848 " />
      <path
         sodipodi:type="inkscape:box3dside"
         id="path4521"
         style="fill:#afafde;fill-rule:evenodd;stroke:none;stroke-width:1px;stroke-linecap:butt;stroke-linejoin:round;stroke-opacity:1"
         inkscape:box3dsidetype="13"
         d="M 30.616072,215.20344 47.247023,227.2096 63.627817,224.67792 42.752539,214.3181 Z"
         points="47.247023,227.2096 63.627817,224.67792 42.752539,214.3181 30.616072,215.20344 " />
      <path
         sodipodi:type="inkscape:box3dside"
         id="path4523"
         style="fill:#e9e9ff;fill-rule:evenodd;stroke:none;stroke-width:1px;stroke-linecap:butt;stroke-linejoin:round;stroke-opacity:1"
         inkscape:box3dsidetype="11"
         d="m 42.752539,189.78761 20.875278,-1.61796 v 36.50827 L 42.752539,214.3181 Z"
         points="63.627817,188.16965 63.627817,224.67792 42.752539,214.3181 42.752539,189.78761 " />
      <path
         sodipodi:type="inkscape:box3dside"
         id="path4515"
         style="fill:#4d4d9f;fill-rule:evenodd;stroke:none;stroke-width:1px;stroke-linecap:butt;stroke-linejoin:round;stroke-opacity:1"
         inkscape:box3dsidetype="5"
         d="m 30.616072,188.8848 16.630951,-2.29038 16.380794,1.57523 -20.875278,1.61796 z"
         points="47.247023,186.59442 63.627817,188.16965 42.752539,189.78761 30.616072,188.8848 " />
      <path
         sodipodi:type="inkscape:box3dside"
         id="path4519"
         style="fill:#d7d7ff;fill-rule:evenodd;stroke:none;stroke-width:1px;stroke-linecap:butt;stroke-linejoin:round;stroke-opacity:1"
         inkscape:box3dsidetype="14"
         d="m 47.247023,186.59442 v 40.61518 l 16.380794,-2.53168 v -36.50827 z"
         points="47.247023,227.2096 63.627817,224.67792 63.627817,188.16965 47.247023,186.59442 " />
      <path
         sodipodi:type="inkscape:box3dside"
         id="path4517"
         style="fill:#8686bf;fill-rule:evenodd;stroke:none;stroke-width:1px;stroke-linecap:butt;stroke-linejoin:round;stroke-opacity:1"
         inkscape:box3dsidetype="3"
         d="m 30.616072,188.8848 16.630951,-2.29038 V 227.2096 L 30.616072,215.20344 Z"
         points="47.247023,186.59442 47.247023,227.2096 30.616072,215.20344 30.616072,188.8848 " />
    </g>
    <text
       xml:space="preserve"
       style="font-style:normal;font-weight:normal;font-size:6.96322441px;line-height:125%;font-family:sans-serif;letter-spacing:0px;word-spacing:0px;fill:#000000;fill-opacity:1;stroke:none;stroke-width:0.17408061px;stroke-linecap:butt;stroke-linejoin:miter;stroke-opacity:1"
       x="26.394922"
       y="158.04858"
       id="text4527"
       transform="scale(0.88791647,1.1262321)"><tspan
         sodipodi:role="line"
         id="tspan4525"
         x="26.394922"
         y="158.04858"
         style="stroke-width:0.17408061px"
         rotate="335.45508 335.45508 335.45508 335.45508 335.45508 335.45508 0">Client</tspan><tspan
         sodipodi:role="line"
         x="26.394922"
         y="171.27776"
         style="stroke-width:0.17408061px"
         id="tspan4529"
         rotate="335.45508 335.45508 335.45508 335.45508 335.45508 335.45508 335.45508 335.45508 335.45508 335.45508 335.45508 335.45508 335.45508 0">     Computer</tspan></text>
    <ellipse
       style="opacity:1;fill:#00ffff;fill-opacity:1;fill-rule:nonzero;stroke:#000000;stroke-width:1.16094661;stroke-miterlimit:4;stroke-dasharray:none;stroke-opacity:1"
       id="path4531"
       cx="34.962795"
       cy="265.06104"
       rx="30.656586"
       ry="23.475039" />
    <text
       xml:space="preserve"
       style="font-style:normal;font-weight:normal;font-size:10.97974491px;line-height:125%;font-family:sans-serif;letter-spacing:0px;word-spacing:0px;fill:#000000;fill-opacity:1;stroke:none;stroke-width:0.2744936px;stroke-linecap:butt;stroke-linejoin:miter;stroke-opacity:1"
       x="21.912495"
       y="195.28838"
       id="text4535"
       transform="scale(0.7507427,1.3320143)"><tspan
         sodipodi:role="line"
         id="tspan4533"
         x="21.912495"
         y="195.28838"
         style="stroke-width:0.2744936px"
         rotate="333.40967 333.40967 333.40967 333.40967 333.40967 0 24.544901 24.544901 24.544901 0">Front End</tspan></text>
    <text
       xml:space="preserve"
       style="font-style:normal;font-weight:normal;font-size:10.01363277px;line-height:125%;font-family:sans-serif;letter-spacing:0px;word-spacing:0px;fill:#000000;fill-opacity:1;stroke:none;stroke-width:0.25034082px;stroke-linecap:butt;stroke-linejoin:miter;stroke-opacity:1"
       x="24.296154"
       y="136.9559"
       id="text4539"
       transform="scale(0.4920439,2.032339)"><tspan
         sodipodi:role="line"
         id="tspan4537"
         x="24.296154"
         y="136.9559"
         style="stroke-width:0.25034082px">what the user sees</tspan></text>
    <path
       style="opacity:1;fill:#ff0000;fill-opacity:1;fill-rule:nonzero;stroke:#000000;stroke-width:0.86399996;stroke-miterlimit:4;stroke-dasharray:none;stroke-opacity:1"
       id="path4543"
       d="m 56.112764,203.5367 c 1.152562,0.79501 1.895795,1.98707 2.707984,3.09662 0.712298,0.99012 1.292458,2.06594 1.966036,3.08234 0.634934,0.94621 1.347793,1.82749 2.196315,2.58864 0.803126,0.73333 1.743691,1.11637 2.76656,1.4209 1.011369,0.30024 2.06375,0.41241 3.113193,0.46965 1.163434,0.0408 2.32786,0.0337 3.491809,0.0316 1.844503,0.15427 6.294821,-0.73304 -1.27627,0.53437 0.856369,-0.28232 1.487593,-0.86913 1.955392,-1.62152 0.498446,-0.7649 0.807704,-1.61946 1.124149,-2.47003 0.290274,-0.93615 0.5535,-1.86687 0.691867,-2.8381 0.120372,-0.93495 0.118686,-1.87957 0.131939,-2.82058 -0.0038,-1.04795 -0.02477,-2.09552 -0.01873,-3.1435 0.0076,-1.09652 -0.01079,-2.19297 -0.0064,-3.28955 0.01252,-1.00416 0.0093,-2.0083 0.01839,-3.01251 -0.0038,-0.95361 -0.003,-1.9072 -0.0035,-2.8608 -0.03635,-0.97186 -0.02156,-1.8955 0.323501,-2.81242 0.43121,-0.89846 1.304285,-1.35305 2.087957,-1.89909 2.233165,-1.22876 4.946917,-1.5942 7.477646,-1.34422 1.150186,0.19536 2.283111,0.47951 3.390575,0.84473 1.120452,0.482 2.184648,1.09375 3.224657,1.72954 1.192987,0.7544 2.425948,1.44005 3.588845,2.24155 0.951923,0.67354 1.804307,1.4708 2.641518,2.27871 0.823497,0.62976 1.421842,1.47698 2.072394,2.27057 0.674179,0.80764 1.399969,1.57028 2.147649,2.30968 0.83458,0.93819 1.78685,1.70465 2.87474,2.32296 1.1009,0.61484 2.30529,1.00466 3.53595,1.25649 0.18946,0.0295 0.37838,0.0627 0.56836,0.0885 0.47838,0.0651 0.55394,0.0768 1.02629,0.0562 0.17248,-0.008 0.68606,-0.0713 0.51646,-0.0391 -5.42249,1.03166 -4.83232,0.90415 -3.29267,0.54693 1.11233,-0.30054 2.14678,-0.7832 3.16406,-1.31531 0.99031,-0.6201 2.06987,-1.04716 3.05613,-1.67374 0.94888,-0.58943 1.7098,-1.37386 2.36969,-2.2637 0.52756,-0.82121 0.68665,-1.75332 0.76987,-2.70551 0.0644,-0.93635 0.0464,-1.87576 0.0492,-2.81374 -0.0103,-0.95188 -0.0124,-1.90388 -0.0144,-2.85581 0.0351,-0.99401 -0.25717,-1.96638 -0.55316,-2.90583 -0.22961,-0.91567 -0.52797,-1.80577 -0.8606,-2.68815 -0.28261,-0.86052 -0.68121,-1.68461 -1.11162,-2.4808 -0.55328,-1.03975 -0.93791,-2.15321 -1.43936,-3.21778 -0.5719,-1.05378 -0.9466,-2.19275 -1.30509,-3.33181 -0.45544,-1.05228 -0.86157,-2.12794 -1.1861,-3.22797 -0.2506,-0.97246 -0.35014,-1.98094 -0.30877,-2.98275 0.13104,-1.13375 0.71284,-2.06781 1.41558,-2.93288 0.70663,-0.84496 1.70233,-1.21692 2.69136,-1.61311 2.6331,-0.92957 5.42354,-1.23824 8.16199,-1.71089 1.11172,-0.14681 2.23462,-0.15137 3.35388,-0.1598 1.09225,-0.03 2.1729,0.19396 3.21726,0.49491 0.895,0.29463 1.8165,0.49128 2.73351,0.70186 1.10745,0.20673 2.12489,0.71423 3.20346,1.02198 1.23265,0.33859 2.48169,0.56974 3.75314,0.69539 1.23086,0.17964 2.46351,0.33799 3.70395,0.43324 1.00691,0.0607 2.0158,0.0668 3.02417,0.0668 1.36539,0.0358 2.72371,-0.0274 4.0749,-0.22602 -6.93004,1.17755 -3.80504,0.75284 -2.32909,0.22991 0.5594,-0.1982 1.10273,-0.44768 1.63649,-0.7053 1.22387,-0.83077 2.10981,-2.09009 2.92074,-3.30738 0.64709,-1.15352 1.1211,-2.39388 1.34878,-3.6965 0.15604,-0.97785 0.1484,-1.96845 0.1555,-2.95533 -0.008,-0.93947 -2.7e-4,-1.87924 -0.0131,-2.8187 0.0457,-1.01602 -0.0296,-2.01499 -0.2312,-3.01101 -0.34369,-1.07562 -0.87031,-2.07826 -1.23878,-3.14589 -0.21847,-0.86295 -0.46629,-1.72043 -0.62915,-2.59655 -0.15528,-0.95333 -0.17399,-1.92097 -0.1842,-2.88459 0.003,-0.99617 0.003,-1.99221 0.0131,-2.98834 -0.002,-0.95522 -7.9e-4,-1.9104 -0.001,-2.86561 0.0262,-0.93843 -0.0483,-1.87936 0.0503,-2.81403 0.10578,-1.20225 0.75225,-2.2694 1.34752,-3.29187 0.67923,-1.00157 1.38991,-1.98629 2.11897,-2.95241 0.64375,-0.78853 1.32823,-1.55113 2.09554,-2.22132 0.78414,-0.57053 1.44047,-1.27395 2.12549,-1.95227 0.71544,-0.71163 1.48534,-1.36362 2.376,-1.84259 1.12557,-0.44169 2.2827,-0.79907 3.42441,-1.20368 1.27612,-0.48527 2.59697,-0.84645 3.84431,-1.40434 0.73368,-0.32324 1.5072,-0.51895 2.29095,-0.67096 0,0 4.30659,-0.75937 4.30659,-0.75937 v 0 c -0.78281,0.15181 -1.55333,0.35109 -2.28742,0.67034 -1.22862,0.55816 -2.53237,0.91806 -3.7932,1.39532 -1.17515,0.41391 -2.36711,0.77299 -3.52754,1.22187 -0.88091,0.48311 -1.63562,1.14235 -2.35542,1.83897 -0.69644,0.66784 -1.34189,1.38537 -2.13032,1.95311 -0.75644,0.67491 -1.4476,1.42485 -2.07831,2.21829 -0.70339,0.96953 -1.40346,1.94387 -2.06394,2.9427 -0.60479,1.03283 -1.2925,2.09403 -1.43191,3.30676 -0.0875,0.93367 -0.0253,1.87538 -0.0405,2.81231 -7.9e-4,0.9556 -2.7e-4,1.91122 -0.006,2.86681 0.007,0.99449 -4e-5,1.98891 0.0155,2.9833 0.0105,0.96443 -0.0172,1.93834 0.13237,2.89373 0.17441,0.87507 0.43479,1.7309 0.68161,2.5873 0.39218,1.05741 0.89664,2.07052 1.23945,3.14578 0.20383,0.99533 0.23031,2.00117 0.2074,3.0152 -0.007,0.9397 0.0123,1.87951 0.0101,2.81923 0.004,0.98404 -0.002,1.97197 -0.12421,2.94981 -0.21845,1.29297 -0.61294,2.53514 -1.26391,3.68153 -0.80507,1.26156 -1.74359,2.49352 -3.01006,3.32314 -2.50792,1.23105 -5.18033,1.61655 -7.972,2.00319 -1.325,0.19461 -2.65499,0.25411 -3.99372,0.2117 -1.00837,-0.005 -2.01753,-0.007 -3.0245,-0.0667 -1.25735,-0.0862 -2.50733,-0.23592 -3.75345,-0.42451 -1.26616,-0.12851 -2.50816,-0.36342 -3.73657,-0.69831 -1.05741,-0.31709 -2.06012,-0.81072 -3.14402,-1.03246 -0.92692,-0.22232 -1.86393,-0.4026 -2.77285,-0.69492 -1.04617,-0.29896 -2.1222,-0.53641 -3.21718,-0.49493 -1.12617,0.007 -2.2563,0.0129 -3.37447,0.16342 7.72114,-1.39974 2.17421,-0.50339 0.46166,0.19032 -0.9986,0.39163 -1.98496,0.77022 -2.70175,1.61495 -0.69751,0.86379 -1.27361,1.80839 -1.41697,2.93311 -0.072,1.00595 0.0534,2.00667 0.30504,2.98342 0.35535,1.09046 0.7705,2.16021 1.18902,3.22745 0.35622,1.14402 0.81682,2.25061 1.34951,3.32398 0.48232,1.06845 0.85434,2.18207 1.38449,3.22745 0.42206,0.79931 0.78636,1.63335 1.08823,2.48493 0.34408,0.87913 0.65335,1.76765 0.8877,2.68337 0.27544,0.94909 0.59353,1.90629 0.543,2.90761 0.001,0.95257 0.005,1.90508 0.004,2.85766 0.0101,0.9375 0.0144,1.87577 -0.0403,2.81216 -0.0851,0.94803 -0.24473,1.88958 -0.77024,2.70558 -0.64532,0.88417 -1.37505,1.67733 -2.31951,2.25485 -0.98702,0.62153 -2.06911,1.04333 -3.05161,1.67294 -1.03065,0.54233 -2.08516,1.01653 -3.212,1.32376 -2.42528,0.56438 -4.92462,1.29562 -7.41269,0.86285 -1.23541,-0.25186 -2.44153,-0.6367 -3.54696,-1.25455 -1.066189,-0.64501 -2.048846,-1.36185 -2.857296,-2.32604 -0.716211,-0.76009 -1.448171,-1.50706 -2.109801,-2.31635 -0.651499,-0.79917 -1.274231,-1.62623 -2.09374,-2.26681 -0.848696,-0.81102 -1.716792,-1.60676 -2.688728,-2.27039 -1.17225,-0.785 -2.400853,-1.47899 -3.587456,-2.24178 -1.028735,-0.62955 -2.065414,-1.26986 -3.179199,-1.73756 -1.116534,-0.36499 -2.258396,-0.63791 -3.415681,-0.84031 -1.922693,-0.19204 -3.144914,0.21023 2.528988,-0.77817 0.157017,-0.0274 -0.312375,0.0682 -0.462142,0.12269 -0.163169,0.0594 -0.318683,0.13863 -0.4732,0.21787 -0.159549,0.0818 -0.312121,0.17658 -0.46818,0.26487 -0.78727,0.5446 -1.679392,0.99082 -2.098453,1.90095 -0.345455,0.91416 -0.372713,1.84244 -0.324511,2.81259 -5.29e-4,0.95402 2.65e-4,1.90802 -0.0035,2.86204 0.0091,1.00204 0.0058,2.00401 0.01857,3.00599 0.0048,1.09706 -0.01318,2.19407 -0.0021,3.29106 0.0094,1.04977 -0.0045,2.09935 -0.01289,3.14907 -1.69e-4,0.94057 -0.01206,1.88274 -0.119308,2.81836 -0.136874,0.97125 -0.397558,1.90759 -0.700519,2.83962 -0.311179,0.85849 -0.637543,1.70851 -1.145262,2.47376 -0.458245,0.75656 -1.089774,1.33802 -1.94378,1.61947 -2.500204,0.45911 -4.790818,1.08398 -7.297203,0.97737 -1.151707,2.6e-4 -2.304023,0.007 -3.455064,-0.0381 -1.052756,-0.0604 -2.109168,-0.16031 -3.123136,-0.46789 -1.018736,-0.31561 -1.96904,-0.69127 -2.777302,-1.41901 -0.838505,-0.77334 -1.576176,-1.63413 -2.205654,-2.587 -0.681295,-1.01452 -1.26106,-2.09399 -1.987834,-3.07849 -0.820221,-1.08315 -1.581536,-2.22087 -2.622317,-3.11173 0,0 4.247317,-0.74891 4.247317,-0.74891 z"
       inkscape:connector-curvature="0" />
    <g
       sodipodi:type="inkscape:box3d"
       id="g4627"
       style="opacity:1;fill:#ff0000;fill-opacity:1;fill-rule:nonzero;stroke:#000000;stroke-width:3.26551175;stroke-miterlimit:4;stroke-dasharray:none;stroke-opacity:1"
       inkscape:perspectiveID="#perspective4509"
       inkscape:corner0="-0.37292262 : 0.062759768 : 0 : 1"
       inkscape:corner7="-0.45423324 : 0.049068561 : 0.21500361 : 1">
      <path
         sodipodi:type="inkscape:box3dside"
         id="path4629"
         style="fill:#353564;fill-rule:evenodd;stroke:none;stroke-width:1px;stroke-linecap:butt;stroke-linejoin:round;stroke-opacity:1"
         inkscape:box3dsidetype="6"
         d="m 167.44345,100.83035 v 21.83336 l 10.67271,20.30055 v -16.25878 z"
         points="167.44345,122.66371 178.11616,142.96426 178.11616,126.70548 167.44345,100.83035 " />
      <path
         sodipodi:type="inkscape:box3dside"
         id="path4639"
         style="fill:#e9e9ff;fill-rule:evenodd;stroke:none;stroke-width:1px;stroke-linecap:butt;stroke-linejoin:round;stroke-opacity:1"
         inkscape:box3dsidetype="11"
         d="m 178.11616,126.70548 19.03693,-7.09633 v 17.99651 l -19.03693,5.3586 z"
         points="197.15309,119.60915 197.15309,137.60566 178.11616,142.96426 178.11616,126.70548 " />
      <path
         sodipodi:type="inkscape:box3dside"
         id="path4631"
         style="fill:#4d4d9f;fill-rule:evenodd;stroke:none;stroke-width:1px;stroke-linecap:butt;stroke-linejoin:round;stroke-opacity:1"
         inkscape:box3dsidetype="5"
         d="m 167.44345,100.83035 24.94643,-13.746893 4.76321,32.525693 -19.03693,7.09633 z"
         points="192.38988,87.083457 197.15309,119.60915 178.11616,126.70548 167.44345,100.83035 " />
      <path
         sodipodi:type="inkscape:box3dside"
         id="path4637"
         style="fill:#afafde;fill-rule:evenodd;stroke:none;stroke-width:1px;stroke-linecap:butt;stroke-linejoin:round;stroke-opacity:1"
         inkscape:box3dsidetype="13"
         d="m 167.44345,122.66371 24.94643,-10.49407 4.76321,25.43602 -19.03693,5.3586 z"
         points="192.38988,112.16964 197.15309,137.60566 178.11616,142.96426 167.44345,122.66371 " />
      <path
         sodipodi:type="inkscape:box3dside"
         id="path4635"
         style="fill:#d7d7ff;fill-rule:evenodd;stroke:none;stroke-width:1px;stroke-linecap:butt;stroke-linejoin:round;stroke-opacity:1"
         inkscape:box3dsidetype="14"
         d="m 192.38988,87.083457 v 25.086183 l 4.76321,25.43602 v -17.99651 z"
         points="192.38988,112.16964 197.15309,137.60566 197.15309,119.60915 192.38988,87.083457 " />
      <path
         sodipodi:type="inkscape:box3dside"
         id="path4633"
         style="fill:#8686bf;fill-rule:evenodd;stroke:none;stroke-width:1px;stroke-linecap:butt;stroke-linejoin:round;stroke-opacity:1"
         inkscape:box3dsidetype="3"
         d="m 167.44345,100.83035 24.94643,-13.746893 v 25.086183 l -24.94643,10.49407 z"
         points="192.38988,87.083457 192.38988,112.16964 167.44345,122.66371 167.44345,100.83035 " />
    </g>
    <text
       xml:space="preserve"
       style="font-style:normal;font-weight:normal;font-size:5.98316574px;line-height:125%;font-family:sans-serif;letter-spacing:0px;word-spacing:0px;fill:#000000;fill-opacity:1;stroke:none;stroke-width:0.14957915px;stroke-linecap:butt;stroke-linejoin:miter;stroke-opacity:1"
       x="182.63107"
       y="66.705505"
       id="text4643"
       transform="scale(0.85475134,1.1699309)"><tspan
         sodipodi:role="line"
         id="tspan4641"
         x="182.63107"
         y="66.705505"
         style="stroke-width:0.14957915px"
         rotate="325.05463 325.05463 325.05463 325.05463 325.05463 325.05463 0">Server</tspan><tspan
         sodipodi:role="line"
         x="182.63107"
         y="74.184464"
         style="stroke-width:0.14957915px"
         id="tspan4645"
         rotate="325.05463 325.05463 325.05463 325.05463 325.05463 325.05463 325.05463 325.05463 325.05463 325.05463 325.05463 325.05463 325.05463 0">     Computer</tspan></text>
    <ellipse
       style="opacity:1;fill:#00ffff;fill-opacity:1;fill-rule:nonzero;stroke:#000000;stroke-width:0.86399996;stroke-miterlimit:4;stroke-dasharray:none;stroke-opacity:1"
       id="path4598"
       cx="175.00298"
       cy="44.511909"
       rx="32.505951"
       ry="23.056549" />
    <text
       xml:space="preserve"
       style="font-style:normal;font-weight:normal;font-size:10.58333302px;line-height:125%;font-family:sans-serif;letter-spacing:0px;word-spacing:0px;fill:#000000;fill-opacity:1;stroke:none;stroke-width:0.26458332px;stroke-linecap:butt;stroke-linejoin:miter;stroke-opacity:1"
       x="151.19049"
       y="38.086308"
       id="text4602"><tspan
         sodipodi:role="line"
         id="tspan4600"
         x="151.19049"
         y="38.086308"
         style="stroke-width:0.26458332px;font-weight:normal"
         rotate="343.63672 343.63672 343.63672 343.63672 0 16.363268 16.363268 16.363268 0">Back End</tspan></text>
    <text
       xml:space="preserve"
       style="font-style:normal;font-weight:normal;font-size:10.58333302px;line-height:125%;font-family:sans-serif;letter-spacing:0px;word-spacing:0px;fill:#000000;fill-opacity:1;stroke:none;stroke-width:0.26458332px;stroke-linecap:butt;stroke-linejoin:miter;stroke-opacity:1"
       x="145.14285"
       y="53.961311"
       id="text4606"><tspan
         sodipodi:role="line"
         id="tspan4604"
         x="145.14285"
         y="53.961311"
         style="stroke-width:0.26458332px">Server side</tspan></text>
  </g>
</svg>
