<?xml version="1.0" encoding="UTF-8" standalone="no"?>
<!-- Created with Inkscape (http://www.inkscape.org/) -->

<svg
   xmlns:dc="http://purl.org/dc/elements/1.1/"
   xmlns:cc="http://creativecommons.org/ns#"
   xmlns:rdf="http://www.w3.org/1999/02/22-rdf-syntax-ns#"
   xmlns:svg="http://www.w3.org/2000/svg"
   xmlns="http://www.w3.org/2000/svg"
   xmlns:sodipodi="http://sodipodi.sourceforge.net/DTD/sodipodi-0.dtd"
   xmlns:inkscape="http://www.inkscape.org/namespaces/inkscape"
   width="210mm"
   height="297mm"
   viewBox="0 0 210 297"
   version="1.1"
   id="svg8"
   inkscape:export-filename="/home/compsci/b1_neu_code/websites/FullStack/images/Lamp_stack_creation.png"
   inkscape:export-xdpi="95.201797"
   inkscape:export-ydpi="95.201797"
   inkscape:version="0.92.1 unknown"
   sodipodi:docname="Lamp_stack_creation.svg">
  <defs
     id="defs2">
    <inkscape:perspective
       sodipodi:type="inkscape:persp3d"
       inkscape:vp_x="-76.816453 : 172.05293 : 1"
       inkscape:vp_y="0 : 857.04884 : 0"
       inkscape:vp_z="216.17976 : 186.71953 : 1"
       inkscape:persp3d-origin="69.251186 : 96.493351 : 1"
       id="perspective4657" />
    <inkscape:perspective
       sodipodi:type="inkscape:persp3d"
       inkscape:vp_x="-2.5352463 : 187.16251 : 1"
       inkscape:vp_y="0 : 1000 : 0"
       inkscape:vp_z="213.16906 : 204.27542 : 1"
       inkscape:persp3d-origin="105 : 99 : 1"
       id="perspective4485" />
  </defs>
  <sodipodi:namedview
     id="base"
     pagecolor="#ffffff"
     bordercolor="#666666"
     borderopacity="1.0"
     inkscape:pageopacity="0.0"
     inkscape:pageshadow="2"
     inkscape:zoom="0.41744792"
     inkscape:cx="407.40552"
     inkscape:cy="606.51162"
     inkscape:document-units="mm"
     inkscape:current-layer="layer1"
     showgrid="false"
     inkscape:snap-global="true"
     inkscape:window-width="1920"
     inkscape:window-height="1149"
     inkscape:window-x="0"
     inkscape:window-y="0"
     inkscape:window-maximized="1" />
  <metadata
     id="metadata5">
    <rdf:RDF>
      <cc:Work
         rdf:about="">
        <dc:format>image/svg+xml</dc:format>
        <dc:type
           rdf:resource="http://purl.org/dc/dcmitype/StillImage" />
        <dc:title />
      </cc:Work>
    </rdf:RDF>
  </metadata>
  <g
     inkscape:label="Layer 1"
     inkscape:groupmode="layer"
     id="layer1"
     style="opacity:0.96">
    <g
       sodipodi:type="inkscape:box3d"
       id="g4501"
       style="opacity:1;fill:#ff00ff;fill-opacity:1;fill-rule:evenodd;stroke:none;stroke-width:3.77952766;stroke-miterlimit:4;stroke-dasharray:none;stroke-opacity:1"
       inkscape:perspectiveID="#perspective4485"
       inkscape:corner0="0.30690601 : 0.18444447 : 0 : 1"
       inkscape:corner7="0.0085489148 : 0.12435552 : 0.33996498 : 1">
      <path
         sodipodi:type="inkscape:box3dside"
         id="path4503"
         style="fill:#353564;fill-rule:evenodd;stroke:none;stroke-width:1px;stroke-linecap:butt;stroke-linejoin:round;stroke-opacity:1"
         inkscape:box3dsidetype="6"
         d="M 79.747066,36.165818 V 82.143837 L 107.28948,84.32803 V 47.841293 Z"
         points="79.747066,82.143837 107.28948,84.32803 107.28948,47.841293 79.747066,36.165818 " />
      <path
         sodipodi:type="inkscape:box3dside"
         id="path4513"
         style="fill:#e9e9ff;fill-rule:evenodd;stroke:none;stroke-width:1px;stroke-linecap:butt;stroke-linejoin:round;stroke-opacity:1"
         inkscape:box3dsidetype="11"
         d="M 107.28948,47.841293 131.58807,34.124707 V 78.684091 L 107.28948,84.32803 Z"
         points="131.58807,34.124707 131.58807,78.684091 107.28948,84.32803 107.28948,47.841293 " />
      <path
         sodipodi:type="inkscape:box3dside"
         id="path4505"
         style="fill:#4d4d9f;fill-rule:evenodd;stroke:none;stroke-width:1px;stroke-linecap:butt;stroke-linejoin:round;stroke-opacity:1"
         inkscape:box3dsidetype="5"
         d="m 79.747066,36.165818 24.341424,-21.794151 27.49958,19.75304 -24.29859,13.716586 z"
         points="104.08849,14.371667 131.58807,34.124707 107.28948,47.841293 79.747066,36.165818 " />
      <path
         sodipodi:type="inkscape:box3dside"
         id="path4511"
         style="fill:#afafde;fill-rule:evenodd;stroke:none;stroke-width:1px;stroke-linecap:butt;stroke-linejoin:round;stroke-opacity:1"
         inkscape:box3dsidetype="13"
         d="m 79.747066,82.143837 24.341424,-8.192562 27.49958,4.732816 -24.29859,5.643939 z"
         points="104.08849,73.951275 131.58807,78.684091 107.28948,84.32803 79.747066,82.143837 " />
      <path
         sodipodi:type="inkscape:box3dside"
         id="path4509"
         style="fill:#d7d7ff;fill-rule:evenodd;stroke:none;stroke-width:1px;stroke-linecap:butt;stroke-linejoin:round;stroke-opacity:1"
         inkscape:box3dsidetype="14"
         d="m 104.08849,14.371667 v 59.579608 l 27.49958,4.732816 V 34.124707 Z"
         points="104.08849,73.951275 131.58807,78.684091 131.58807,34.124707 104.08849,14.371667 " />
      <path
         sodipodi:type="inkscape:box3dside"
         id="path4507"
         style="fill:#8686bf;fill-rule:evenodd;stroke:none;stroke-width:1px;stroke-linecap:butt;stroke-linejoin:round;stroke-opacity:1"
         inkscape:box3dsidetype="3"
         d="M 79.747066,36.165818 104.08849,14.371667 v 59.579608 l -24.341424,8.192562 z"
         points="104.08849,14.371667 104.08849,73.951275 79.747066,82.143837 79.747066,36.165818 " />
    </g>
    <text
       xml:space="preserve"
       style="font-style:normal;font-weight:normal;font-size:10.58333302px;line-height:125%;font-family:sans-serif;letter-spacing:0px;word-spacing:0px;fill:#000000;fill-opacity:1;stroke:none;stroke-width:0.26458332px;stroke-linecap:butt;stroke-linejoin:miter;stroke-opacity:1"
       x="63.524551"
       y="11.202609"
       id="text4517"><tspan
         sodipodi:role="line"
         id="tspan4515"
         x="63.524551"
         y="11.202609"
         style="stroke-width:0.26458332px">server - remote</tspan><tspan
         sodipodi:role="line"
         x="63.524551"
         y="24.431776"
         style="stroke-width:0.26458332px"
         id="tspan4519" /></text>
    <path
       style="opacity:1;fill:#ff6600;fill-opacity:1;fill-rule:nonzero;stroke:none;stroke-width:1;stroke-miterlimit:4;stroke-dasharray:none;stroke-opacity:1"
       id="path4585"
       d="m 120.69494,43.153909 c 1.93234,0.934701 3.85824,1.87747 5.767,2.86032 1.81862,0.928016 3.69496,1.508263 5.73422,1.556629 2.55326,-0.09539 6.9922,-1.011542 -4.81921,0.963014 -0.23775,0.03975 0.47075,-0.104068 0.70683,-0.152768 1.03436,-0.213373 0.33068,-0.03619 1.34072,-0.316785 1.62096,-0.30875 3.00053,-1.130128 4.30466,-2.099998 1.43582,-1.118767 2.5641,-2.569395 3.55248,-4.0846 0.67334,-1.386081 1.4848,-2.691832 2.30456,-3.994148 0.7107,-1.404948 1.69595,-2.625145 2.62825,-3.882083 1.08829,-1.419497 2.35385,-2.704068 3.65011,-3.934917 0.93523,-0.846085 2.0368,-1.40243 3.27767,-1.620581 2.62206,-0.460973 5.2472,-0.904198 7.87079,-1.356299 1.52896,-0.112776 3.0757,-0.198837 4.60296,-0.03781 0.94477,0.225078 1.8727,0.516329 2.78109,0.858165 0,0 -7.12261,1.255906 -7.12261,1.255906 v 0 c -0.91365,-0.343503 -1.84884,-0.628793 -2.7989,-0.855025 -1.52529,-0.156554 -3.0702,-0.0773 -4.59694,0.03675 2.1304,-0.386156 4.25926,-0.780878 6.3912,-1.158472 0.24198,-0.04286 -0.4842,0.08823 -0.72092,0.154183 -0.94904,0.264411 -1.77816,0.804092 -2.50473,1.457224 -1.2911,1.234361 -2.55106,2.518593 -3.64348,3.933749 -0.96835,1.24451 -1.96847,2.468938 -2.67519,3.890359 -0.81759,1.295622 -1.63314,2.593959 -2.27446,3.98884 -0.96307,1.535623 -2.09551,2.976935 -3.54652,4.08355 -1.32429,0.97863 -2.72528,1.803034 -4.36819,2.1112 -3.75051,1.043048 -7.64963,1.743194 -11.52478,2.027386 -2.05233,-0.03904 -3.96379,-0.587481 -5.78553,-1.547583 -1.88791,-0.931494 -3.79485,-1.830919 -5.61689,-2.886789 0,0 7.08581,-1.249418 7.08581,-1.249418 z"
       inkscape:connector-curvature="0" />
    <path
       style="opacity:1;fill:#ff6600;fill-opacity:1;fill-rule:nonzero;stroke:none;stroke-width:1;stroke-miterlimit:4;stroke-dasharray:none;stroke-opacity:1"
       id="path4587"
       d="m 120.05504,65.262574 c 2.13756,0.94375 3.78378,2.689304 5.69482,4.008525 1.66467,1.085567 3.64691,1.305552 5.58192,1.439693 1.64478,0.04232 3.30294,0.140734 4.94208,-0.03188 -11.59605,2.134264 -6.65036,1.746742 -4.35857,-0.06425 0.45777,-0.361735 0.72097,-0.666035 1.12241,-1.085723 1.09486,-1.225957 2.1948,-2.443908 3.20724,-3.739208 1.04,-1.257178 2.05095,-2.534118 3.05419,-3.820755 0.9895,-1.259602 2.251,-2.270866 3.43077,-3.344958 1.14109,-0.99819 2.53256,-1.597154 3.97341,-2.014899 3.86551,-0.95603 7.77444,-1.630043 11.74241,-1.721311 1.60028,-0.02299 3.20086,-0.01252 4.80125,-0.0083 0,0 -7.15761,1.262081 -7.15761,1.262081 v 0 c -1.59424,-0.0044 -3.18856,-0.01458 -4.78275,0.0051 -0.78348,0.01947 -1.5669,0.03887 -2.34833,0.103687 -0.25991,0.02156 -1.03471,0.126992 -0.77844,0.0786 9.00958,-1.701276 8.25038,-1.545164 5.66628,-0.979268 -1.43737,0.415838 -2.82383,1.000567 -3.95229,2.011175 -1.18682,1.070377 -2.45175,2.079632 -3.43881,3.346375 -1.00603,1.284309 -2.00311,2.571518 -3.05316,3.820576 -1.01121,1.300578 -2.10714,2.523961 -3.21746,3.741007 -3.00498,3.136323 -6.42468,3.091611 -11.05532,3.669948 -1.65778,0.176313 -3.33365,0.0763 -4.9975,0.04165 -1.96175,-0.130175 -3.94376,-0.365363 -5.65062,-1.427575 -1.91619,-1.249979 -3.51584,-2.911068 -5.49955,-4.042958 0,0 7.07363,-1.247272 7.07363,-1.247272 z"
       inkscape:connector-curvature="0" />
    <text
       xml:space="preserve"
       style="font-style:normal;font-weight:normal;font-size:10.58333302px;line-height:125%;font-family:sans-serif;letter-spacing:0px;word-spacing:0px;fill:#000000;fill-opacity:1;stroke:none;stroke-width:0.26458332px;stroke-linecap:butt;stroke-linejoin:miter;stroke-opacity:1"
       x="155.5237"
       y="27.278234"
       id="text4591"><tspan
         sodipodi:role="line"
         id="tspan4589"
         x="155.5237"
         y="27.278234"
         style="stroke-width:0.26458332px">MySQL DB</tspan></text>
    <text
       xml:space="preserve"
       style="font-style:normal;font-weight:normal;font-size:10.58333302px;line-height:125%;font-family:sans-serif;letter-spacing:0px;word-spacing:0px;fill:#000000;fill-opacity:1;stroke:none;stroke-width:0.26458332px;stroke-linecap:butt;stroke-linejoin:miter;stroke-opacity:1"
       x="163.24696"
       y="54.879505"
       id="text4595"><tspan
         sodipodi:role="line"
         id="tspan4593"
         x="163.24696"
         y="54.879505"
         style="stroke-width:0.26458332px">PHP</tspan></text>
    <text
       xml:space="preserve"
       style="font-style:normal;font-weight:normal;font-size:10.58333302px;line-height:125%;font-family:sans-serif;letter-spacing:0px;word-spacing:0px;fill:#000000;fill-opacity:1;stroke:none;stroke-width:0.26458332px;stroke-linecap:butt;stroke-linejoin:miter;stroke-opacity:1"
       x="147.0443"
       y="80.870239"
       id="text4599"><tspan
         sodipodi:role="line"
         id="tspan4597"
         x="147.0443"
         y="80.870239"
         style="stroke-width:0.26458332px">&quot;Back End&quot;</tspan></text>
    <path
       style="opacity:1;fill:#000080;fill-opacity:1;fill-rule:nonzero;stroke:none;stroke-width:1;stroke-miterlimit:4;stroke-dasharray:none;stroke-opacity:1"
       id="path4609"
       d="m 107.60689,83.866698 c -1.89449,1.634553 -3.65167,3.351101 -5.13286,5.369576 -1.16252,1.527513 -1.63203,3.29951 -1.86889,5.166876 -0.19561,1.445868 -0.16941,2.778495 0.44627,4.110209 1.22409,1.366089 2.66439,2.564761 4.21664,3.542241 1.40183,0.62597 2.72024,1.40305 4.02765,2.20302 1.33358,0.804 2.41512,1.92319 3.35445,3.15174 0.85261,1.34441 1.05754,2.9092 1.17425,4.46246 0.0721,1.5735 0.0635,3.1489 0.0456,4.72347 0.0944,1.69979 -0.0271,3.33709 -0.52298,4.96607 -0.6056,1.83882 -1.77093,3.4039 -3.14783,4.73834 -1.17035,0.96448 -2.53128,1.6335 -3.8979,2.26767 -1.3864,0.81568 -2.82458,1.48298 -4.30982,2.09243 -1.35594,0.75548 -1.75612,2.02513 -1.97331,3.46491 -0.34135,1.72256 0.08,3.33323 0.47733,4.99786 0.34221,1.74061 0.67022,3.48687 1.10871,5.20651 0.64891,1.65863 1.65282,3.15524 2.41014,4.77118 0.61007,1.60655 1.66883,2.88307 2.84711,4.09797 0.93881,1.16114 1.8087,2.39322 2.64184,3.6348 1.10822,1.40975 1.96365,2.91657 2.52579,4.61836 0.47193,1.66385 0.58044,3.35965 0.39382,5.06956 -0.26106,1.6619 -1.25451,2.97474 -2.30673,4.22688 -1.17944,1.32671 -2.45073,2.56769 -3.71001,3.81763 -1.1791,1.15155 -2.01749,2.52271 -2.75199,3.97991 -0.80966,1.85958 -1.70536,3.67889 -2.57729,5.50935 -0.76272,1.48645 -1.00163,3.09189 -1.128753,4.73331 -0.03478,1.53173 -0.139581,3.07816 0.01669,4.60503 0.236943,1.21021 1.257593,1.96824 1.831773,3.01913 0.54639,1.32935 0.5983,2.78635 0.64989,4.20414 0.0262,1.56966 0.0241,3.13935 0.008,4.70911 0.003,1.59782 -4e-5,3.19558 -5.3e-4,4.79341 -0.008,0.78672 -0.009,1.57313 -0.001,2.35983 0,0 -7.156466,1.26188 -7.156466,1.26188 v 0 c 0.0082,-0.78664 0.0072,-1.57299 1.93e-4,-2.35966 0.0019,-1.59878 0.0024,-3.19764 0.01717,-4.79636 -0.0049,-1.56933 0.01908,-3.13867 -0.01603,-4.70769 -0.03933,-1.42166 -0.06838,-2.8679 -0.573503,-4.21761 -0.581536,-1.05087 -1.587508,-1.81893 -1.888971,-3.00904 -0.174337,-1.52695 -0.07536,-3.06968 -0.0299,-4.6027 0.11035,-1.62327 0.360479,-3.2239 1.043459,-4.71827 0.83585,-1.86273 1.769485,-3.67626 2.641489,-5.52067 0.742979,-1.44124 1.577094,-2.81317 2.727063,-3.97551 1.262576,-1.25247 2.536996,-2.49578 3.724946,-3.82027 1.0613,-1.24991 2.07557,-2.5574 2.32208,-4.22959 0.16789,-1.71493 0.0688,-3.40142 -0.44135,-5.06118 -0.54278,-1.68609 -1.38431,-3.21961 -2.45566,-4.63072 -0.8451,-1.2384 -1.68464,-2.49731 -2.665892,-3.63056 -1.171533,-1.21992 -2.266654,-2.4842 -2.873129,-4.09338 -0.744728,-1.61961 -1.78671,-3.09366 -2.393776,-4.77407 -0.455662,-1.71537 -0.780512,-3.46406 -1.154266,-5.19848 -0.365267,-1.6727 -0.731205,-3.29254 -0.396388,-5.01213 0.234289,-1.41918 0.649957,-2.71136 1.977983,-3.46573 1.478846,-0.60908 2.902066,-1.29252 4.291057,-2.08912 1.364561,-0.61863 2.719141,-1.28854 3.871011,-2.26293 1.35399,-1.35391 2.47679,-2.90828 3.11214,-4.73205 0.53462,-1.64259 0.68642,-3.25171 0.59342,-4.97849 -0.003,-1.57373 0.0273,-3.14902 -0.0594,-4.72103 -0.11119,-1.55973 -0.30724,-3.10904 -1.15775,-4.46537 -0.95323,-1.21856 -2.02062,-2.34363 -3.35485,-3.15167 -1.31506,-0.80641 -2.642492,-1.59149 -4.065347,-2.19638 -1.5631,-0.94046 -3.021301,-2.12163 -4.161208,-3.552008 -0.591574,-1.329357 -0.639918,-2.665648 -0.475427,-4.105072 0.192656,-1.842719 0.628475,-3.600754 1.717961,-5.140264 1.497991,-2.109131 3.247572,-3.840924 5.316051,-5.401876 0,0 7.11736,-1.254982 7.11736,-1.254982 z"
       inkscape:connector-curvature="0" />
    <g
       sodipodi:type="inkscape:box3d"
       id="g4639"
       style="opacity:1;fill:#000080;fill-opacity:1;fill-rule:nonzero;stroke:none;stroke-width:3.77952766;stroke-miterlimit:4;stroke-dasharray:none;stroke-opacity:1"
       inkscape:perspectiveID="#perspective4657"
       inkscape:corner0="0.024260369 : -0.016969815 : 0 : 1"
       inkscape:corner7="-0.1642149 : -0.048135375 : 0.25 : 1">
      <path
         sodipodi:type="inkscape:box3dside"
         id="path4641"
         style="fill:#353564;fill-rule:evenodd;stroke:none;stroke-width:0.28547421px;stroke-linecap:butt;stroke-linejoin:round;stroke-opacity:1"
         inkscape:box3dsidetype="6"
         d="m 65.791467,212.91644 v 26.07775 l 29.505017,-25.25263 v -20.9615 z"
         points="65.791467,238.99419 95.296484,213.74156 95.296484,192.78006 65.791467,212.91644 " />
      <path
         sodipodi:type="inkscape:box3dside"
         id="path4649"
         style="fill:#afafde;fill-rule:evenodd;stroke:none;stroke-width:0.28547421px;stroke-linecap:butt;stroke-linejoin:round;stroke-opacity:1"
         inkscape:box3dsidetype="13"
         d="M 65.791467,238.99419 97.950531,264.7126 125.17259,229.15489 95.296484,213.74156 Z"
         points="97.950531,264.7126 125.17259,229.15489 95.296484,213.74156 65.791467,238.99419 " />
      <path
         sodipodi:type="inkscape:box3dside"
         id="path4651"
         style="fill:#e9e9ff;fill-rule:evenodd;stroke:none;stroke-width:0.28547421px;stroke-linecap:butt;stroke-linejoin:round;stroke-opacity:1"
         inkscape:box3dsidetype="11"
         d="m 95.296484,192.78006 29.876106,11.77474 v 24.60009 L 95.296484,213.74156 Z"
         points="125.17259,204.5548 125.17259,229.15489 95.296484,213.74156 95.296484,192.78006 " />
      <path
         sodipodi:type="inkscape:box3dside"
         id="path4643"
         style="fill:#4d4d9f;fill-rule:evenodd;stroke:none;stroke-width:0.28547421px;stroke-linecap:butt;stroke-linejoin:round;stroke-opacity:1"
         inkscape:box3dsidetype="5"
         d="M 65.791467,212.91644 97.950531,232.75414 125.17259,204.5548 95.296484,192.78006 Z"
         points="97.950531,232.75414 125.17259,204.5548 95.296484,192.78006 65.791467,212.91644 " />
      <path
         sodipodi:type="inkscape:box3dside"
         id="path4647"
         style="fill:#d7d7ff;fill-rule:evenodd;stroke:none;stroke-width:0.28547421px;stroke-linecap:butt;stroke-linejoin:round;stroke-opacity:1"
         inkscape:box3dsidetype="14"
         d="M 97.950531,232.75414 V 264.7126 L 125.17259,229.15489 V 204.5548 Z"
         points="97.950531,264.7126 125.17259,229.15489 125.17259,204.5548 97.950531,232.75414 " />
      <path
         sodipodi:type="inkscape:box3dside"
         id="path4645"
         style="fill:#8686bf;fill-rule:evenodd;stroke:none;stroke-width:0.28547421px;stroke-linecap:butt;stroke-linejoin:round;stroke-opacity:1"
         inkscape:box3dsidetype="3"
         d="m 65.791467,212.91644 32.159064,19.8377 V 264.7126 L 65.791467,238.99419 Z"
         points="97.950531,232.75414 97.950531,264.7126 65.791467,238.99419 65.791467,212.91644 " />
    </g>
    <path
       style="opacity:1;fill:#ff6600;fill-opacity:1;fill-rule:nonzero;stroke:none;stroke-width:1;stroke-miterlimit:4;stroke-dasharray:none;stroke-opacity:1"
       id="path4659"
       d="m 116.77819,215.55975 c 1.78042,-1.0779 3.56226,-2.13482 5.23515,-3.37756 1.38557,-1.11817 2.87156,-2.10197 4.15682,-3.33939 1.44029,-1.37913 2.44441,-3.04273 3.15593,-4.89135 0.70193,-2.04614 1.17515,-4.15552 1.76844,-6.23494 0.4305,-1.69457 0.82409,-3.39811 1.21704,-5.10214 0.41533,-1.50802 0.92799,-3.01133 1.61148,-4.4212 0.7986,-1.5696 2.00499,-2.73918 3.43915,-3.72048 1.52493,-0.91372 3.17609,-1.56483 4.78595,-2.30628 1.42731,-0.5667 2.86558,-1.12117 4.36146,-1.47906 4.25693,-1.0296 7.63614,-2.10078 11.6052,-0.94398 0,0 -7.19035,1.26785 -7.19035,1.26785 v 0 c -0.77891,-0.25138 -1.4857,-0.45071 -2.30597,-0.5012 -0.24667,-0.0152 -0.98293,0.0297 -0.74112,-0.0214 0.74339,-0.15696 9.1239,-1.663 5.74451,-1.05539 -1.47204,0.35359 -2.88631,0.90345 -4.28911,1.46631 -1.60324,0.73835 -3.24906,1.38487 -4.76366,2.30234 -1.45652,0.97646 -2.68679,2.15459 -3.50341,3.73181 -0.68751,1.41229 -1.16129,2.92661 -1.62536,4.42366 -0.35391,1.6955 -0.69182,3.39325 -1.08657,5.07913 -0.5985,2.08065 -1.06858,4.19729 -1.79014,6.23877 -0.72566,1.86886 -1.74808,3.54267 -3.24023,4.90621 -1.25029,1.23747 -2.72492,2.20159 -4.07422,3.32482 -1.70353,1.28065 -3.51502,2.38302 -5.38518,3.40402 0,0 -7.08581,1.24942 -7.08581,1.24942 z"
       inkscape:connector-curvature="0" />
    <path
       style="opacity:1;fill:#ff6600;fill-opacity:1;fill-rule:nonzero;stroke:none;stroke-width:1;stroke-miterlimit:4;stroke-dasharray:none;stroke-opacity:1"
       id="path4665"
       d="m 125.8404,222.21948 c 2.19347,0.14099 4.37867,0.37322 6.57302,0.50541 3.5115,0.43915 9.7553,-0.87283 -2.01675,1.12994 1.53344,-0.48139 2.84599,-1.34452 4.08465,-2.34289 1.30089,-0.96945 2.6336,-1.89422 3.96994,-2.81398 3.54263,-2.06072 8.11239,-2.37487 12.04498,-2.74369 1.95577,-0.0805 3.92729,-0.20628 5.87984,-0.0248 1.85757,0.28472 3.61192,0.93587 5.13919,2.02684 1.30966,0.97798 2.21576,2.33878 3.42732,3.42103 1.24839,1.03666 2.72084,1.55864 4.2867,1.88039 0.43763,0.0547 1.17152,0.15813 1.61436,0.16648 0.26231,0.005 1.04399,-0.0847 0.78626,-0.0356 -7.27768,1.38577 -8.32973,1.83556 -5.65292,0.82524 0,0 7.14796,-1.26038 7.14796,-1.26038 v 0 c -3.48066,1.31195 -7.33488,2.07247 -11.03474,1.56306 -1.57922,-0.31589 -3.04399,-0.84633 -4.31112,-1.87608 -1.21419,-1.07468 -2.09916,-2.46038 -3.42263,-3.42186 -1.54088,-1.07276 -3.31617,-1.69629 -5.16226,-2.02277 -1.96124,-0.16853 -3.93907,-0.0454 -5.90311,0.0289 -2.94181,0.26897 -2.00489,0.21009 5.3847,-1.04644 0.26909,-0.0457 -0.53365,0.11695 -0.79569,0.19334 -0.62314,0.18167 -0.94239,0.31264 -1.50863,0.62089 -0.24998,0.13607 -0.48858,0.29208 -0.73287,0.43812 -1.34521,0.92023 -2.70254,1.82437 -3.99474,2.81835 -1.24439,0.99344 -2.56113,1.85922 -4.09434,2.34459 -4.40876,0.79936 -8.0611,1.82107 -12.37372,1.4075 -2.14465,-0.11886 -4.28303,-0.3119 -6.41951,-0.53248 0,0 7.08411,-1.24912 7.08411,-1.24912 z"
       inkscape:connector-curvature="0" />
    <path
       style="opacity:1;fill:#ff6600;fill-opacity:1;fill-rule:nonzero;stroke:none;stroke-width:1;stroke-miterlimit:4;stroke-dasharray:none;stroke-opacity:1"
       id="path4667"
       d="m 124.90418,229.72196 c 1.1637,1.76409 2.20809,3.59382 3.4658,5.29694 1.14178,1.60503 2.59797,2.90551 4.07059,4.19272 1.44903,1.42922 3.08562,2.60597 4.72434,3.80109 1.63741,1.02696 3.33639,1.95284 4.96248,2.99735 1.2685,0.9232 2.70587,1.2715 4.23217,1.45961 1.55078,0.13472 3.1105,0.11994 4.66582,0.11405 1.50555,-0.11136 2.98105,0.16503 4.46413,0.37002 1.41402,0.19129 2.84288,0.2143 4.26735,0.23961 1.48891,-0.0608 2.95052,0.23148 4.42509,0.38951 1.86263,0.31373 3.72992,0.59053 5.61138,0.76038 1.67551,0.14682 3.27724,0.72761 4.92983,1.04723 0.26118,0.0153 0.52237,0.0306 0.78355,0.0459 0,0 -7.15147,1.261 -7.15147,1.261 v 0 c -0.26722,-0.0142 -0.53444,-0.0285 -0.80166,-0.0427 -1.65431,-0.31103 -3.2505,-0.90991 -4.92615,-1.04788 -1.88607,-0.15652 -3.76,-0.41088 -5.62076,-0.75873 -1.4585,-0.16483 -2.90243,-0.476 -4.37803,-0.39781 -1.42019,-0.0233 -2.84335,-0.055 -4.25342,-0.24206 -1.49712,-0.2012 -2.98709,-0.47263 -4.50562,-0.36271 -1.54867,0 -3.10115,0.022 -4.64522,-0.11767 -1.53422,-0.18692 -2.98486,-0.55463 -4.27564,-1.45195 -1.64938,-1.04305 -3.38689,-1.93893 -5.03569,-2.98444 -1.63406,-1.18846 -3.22819,-2.40914 -4.69261,-3.80669 -1.47625,-1.28581 -2.91568,-2.60801 -4.0863,-4.18995 -1.26494,-1.67295 -2.38566,-3.44047 -3.31577,-5.32339 0,0 7.08581,-1.24942 7.08581,-1.24942 z"
       inkscape:connector-curvature="0" />
    <text
       xml:space="preserve"
       style="font-style:normal;font-weight:normal;font-size:10.58333302px;line-height:125%;font-family:sans-serif;letter-spacing:0px;word-spacing:0px;fill:#000000;fill-opacity:1;stroke:none;stroke-width:0.26458332px;stroke-linecap:butt;stroke-linejoin:miter;stroke-opacity:1"
       x="158.11481"
       y="179.74338"
       id="text4671"><tspan
         sodipodi:role="line"
         id="tspan4669"
         x="158.11481"
         y="179.74338"
         style="stroke-width:0.26458332px">HTML</tspan></text>
    <text
       xml:space="preserve"
       style="font-style:normal;font-weight:normal;font-size:10.58333302px;line-height:125%;font-family:sans-serif;letter-spacing:0px;word-spacing:0px;fill:#000000;fill-opacity:1;stroke:none;stroke-width:0.26458332px;stroke-linecap:butt;stroke-linejoin:miter;stroke-opacity:1"
       x="173.12494"
       y="222.95346"
       id="text4675"><tspan
         sodipodi:role="line"
         id="tspan4673"
         x="173.12494"
         y="222.95346"
         style="stroke-width:0.26458332px">CSS</tspan></text>
    <text
       xml:space="preserve"
       style="font-style:normal;font-weight:normal;font-size:10.58333302px;line-height:125%;font-family:sans-serif;letter-spacing:0px;word-spacing:0px;fill:#000000;fill-opacity:1;stroke:none;stroke-width:0.26458332px;stroke-linecap:butt;stroke-linejoin:miter;stroke-opacity:1"
       x="175.50671"
       y="250.43637"
       id="text4679"><tspan
         sodipodi:role="line"
         id="tspan4677"
         x="175.50671"
         y="250.43637"
         style="stroke-width:0.26458332px">JS</tspan></text>
    <text
       xml:space="preserve"
       style="font-style:normal;font-weight:normal;font-size:10.58333302px;line-height:125%;font-family:sans-serif;letter-spacing:0px;word-spacing:0px;fill:#000000;fill-opacity:1;stroke:none;stroke-width:0.26458332px;stroke-linecap:butt;stroke-linejoin:miter;stroke-opacity:1"
       x="16.479101"
       y="264.04178"
       id="text4683"><tspan
         sodipodi:role="line"
         id="tspan4681"
         x="16.479101"
         y="264.04178"
         style="stroke-width:0.26458332px">&quot;Front End&quot;</tspan></text>
    <text
       xml:space="preserve"
       style="font-style:normal;font-weight:normal;font-size:10.58333302px;line-height:125%;font-family:sans-serif;letter-spacing:0px;word-spacing:0px;fill:#000000;fill-opacity:1;stroke:none;stroke-width:0.26458332px;stroke-linecap:butt;stroke-linejoin:miter;stroke-opacity:1"
       x="49.437305"
       y="288.7605"
       id="text4687"><tspan
         sodipodi:role="line"
         id="tspan4685"
         x="49.437305"
         y="288.7605"
         style="stroke-width:0.26458332px">Client - &quot;User End&quot;</tspan></text>
    <path
       style="opacity:1;fill:#0000ff;fill-opacity:1;fill-rule:nonzero;stroke:none;stroke-width:1;stroke-miterlimit:4;stroke-dasharray:none;stroke-opacity:1"
       id="path4689"
       d="m 105.56178,134.90452 c 2.3835,0.48598 4.74556,1.04637 7.15169,1.41689 3.03061,0.49332 10.43817,-1.1446 -2.30935,1.05759 1.56449,-0.27629 3.08016,-0.72681 4.56232,-1.29257 1.71714,-0.77097 3.37131,-1.68308 4.87059,-2.82286 1.63482,-1.3286 3.27944,-2.64272 4.86292,-4.03274 1.22566,-1.2186 2.68025,-2.14647 4.08385,-3.13706 0.93572,-0.64014 0.45631,-0.33461 1.43863,-0.91595 0,0 7.17483,-1.26511 7.17483,-1.26511 v 0 c -0.98907,0.58554 -0.50057,0.27887 -1.46512,0.92061 -1.3848,0.97668 -2.8043,1.91111 -4.00342,3.12288 -1.57729,1.40222 -3.2173,2.72602 -4.87273,4.03447 -1.52101,1.11762 -3.15754,2.07102 -4.88941,2.82618 -1.5124,0.56408 -3.05407,1.02818 -4.64654,1.30742 -3.83455,0.68744 -8.05999,1.92614 -12.0765,1.47903 -2.35513,-0.33575 -4.67457,-0.83238 -6.972578,-1.44848 0,0 7.090818,-1.2503 7.090818,-1.2503 z"
       inkscape:connector-curvature="0" />
    <text
       xml:space="preserve"
       style="font-style:normal;font-weight:normal;font-size:10.58333302px;line-height:125%;font-family:sans-serif;letter-spacing:0px;word-spacing:0px;fill:#0000ff;fill-opacity:1;stroke:none;stroke-width:0.26458332px;stroke-linecap:butt;stroke-linejoin:miter;stroke-opacity:1"
       x="137.39726"
       y="123.91271"
       id="text4693"><tspan
         sodipodi:role="line"
         id="tspan4691"
         x="137.39726"
         y="123.91271"
         style="fill:#0000ff;stroke-width:0.26458332px">internet</tspan><tspan
         sodipodi:role="line"
         x="137.39726"
         y="137.14188"
         style="fill:#0000ff;stroke-width:0.26458332px"
         id="tspan4697">wired or wifi</tspan></text>
    <path
       style="opacity:1;fill:#ff00ff;fill-opacity:1;fill-rule:nonzero;stroke:none;stroke-width:1;stroke-miterlimit:4;stroke-dasharray:none;stroke-opacity:1"
       id="path4705"
       d="M 24.086975,0.28086642 C 22.861207,2.1481886 21.37273,3.8208352 20.000098,5.5787861 c -1.0498,1.5537161 -1.940255,3.1727954 -2.669772,4.8957309 -0.679915,1.490471 -0.888216,3.104844 -1.026307,4.719273 -0.127357,1.665984 -0.06519,3.306631 0.138264,4.960178 0.288825,1.772865 1.058955,3.389006 1.945381,4.931462 1.295814,1.918545 2.891778,3.610775 4.499508,5.268049 2.090277,2.113999 4.409911,3.985622 6.741007,5.824865 1.876549,1.378432 3.894532,2.57279 6.033936,3.492201 1.984706,0.874345 3.980588,1.724649 5.977912,2.570083 2.105638,0.757679 3.647783,2.171266 5.0776,3.828836 1.073301,1.361191 1.616411,3.042258 2.059588,4.696888 0.327149,1.372947 0.390266,2.787751 0.42786,4.192932 0.02143,1.604616 0.09958,3.194698 -0.228515,4.772525 -0.399717,1.578104 -0.892908,3.129092 -1.374423,4.683474 -0.53354,1.66992 -1.433899,3.184427 -2.123451,4.788823 -0.766977,1.596525 -1.011938,3.307207 -1.192964,5.047176 -0.09849,1.927294 -0.125963,3.856069 -0.139962,5.785318 0.06039,1.098249 -0.112768,2.222206 -0.0063,3.318119 0.04102,0.422079 0.296031,1.422442 0.389747,1.814623 0.554598,2.005767 1.666486,3.795797 2.753955,5.550646 1.150395,1.949347 2.793881,3.382071 4.679805,4.580604 2.112869,1.208133 4.302871,2.246027 6.547212,3.178866 2.007171,0.833358 4.134451,1.299935 6.24446,1.785002 1.868374,0.59164 3.759782,1.09441 5.704933,1.34467 1.799566,0.18544 3.612388,0.18001 5.419566,0.1907 1.659115,8e-4 3.318216,-0.005 4.977323,-0.008 1.570598,-7.9e-4 3.141189,-0.003 4.711787,-0.002 1.597515,-0.002 3.195029,-0.002 4.792544,-0.002 1.801854,-0.0415 3.609067,0.0777 5.405736,-0.0781 -0.607018,0.1178 2.234205,-0.31091 1.679271,-0.20962 -2.080863,0.37982 -4.165875,0.73664 -6.250255,1.09668 -0.318344,0.055 0.634355,-0.12274 0.952019,-0.18152 0.310499,-0.0575 0.621387,-0.11281 0.932439,-0.16718 2.690511,-0.47035 5.381495,-0.938 8.072238,-1.40699 -2.097166,0.36142 -4.192229,0.73528 -6.291505,1.08426 -0.579856,0.0964 1.149755,-0.24648 1.72856,-0.349 3.463365,-0.61345 6.466515,-1.30731 9.813375,-1.57469 1.7578,-0.11729 3.52027,-0.116915 5.28107,-0.123918 1.6073,0.0019 3.21461,0.0035 4.82191,0.007 1.67634,-0.12229 3.10281,0.429398 4.50398,1.288638 1.53823,0.92971 3.10309,1.80987 4.63563,2.7501 1.86859,0.90318 3.85649,1.49702 5.85585,2.02648 2.05275,0.53835 4.02176,1.30807 6.09856,1.76155 1.65,0.34189 3.33698,0.39074 5.01558,0.42372 1.60783,0.0424 3.20029,0.0283 4.79485,-0.18297 1.6985,-0.24044 3.40496,-0.35967 5.10296,-0.60376 3.01182,-0.22662 11.34064,-1.70532 -1.39738,0.4509 1.73308,-0.56448 3.46411,-1.13682 5.18497,-1.73774 1.6079,-0.63068 3.34175,-0.75498 4.95172,-1.35806 1.61465,-0.80341 3.36066,-1.14689 5.09642,-1.55724 3.93675,-0.86753 7.90875,-1.70244 11.93858,-1.93589 1.65309,-0.0681 3.30819,-0.0666 4.96241,-0.0669 1.79876,0.0266 3.60158,-0.0616 5.39582,0.0812 2.21224,0.38142 4.2666,1.36125 6.24696,2.38185 1.7434,0.97758 3.34952,2.17258 5.00057,3.29284 1.17256,0.91688 2.47406,1.47076 3.93191,1.71019 -0.53666,0.38319 3.07348,-0.18448 2.2001,-0.0274 -11.42737,2.0558 -7.31379,1.3074 -4.77795,0.71238 1.06548,-0.29808 2.11184,-0.65008 3.16042,-1.00182 0,0 7.1661,-1.26358 7.1661,-1.26358 v 0 c -1.05171,0.35443 -2.10246,0.7042 -3.17142,1.00376 -3.83886,0.90239 -7.74978,2.09698 -11.70108,1.83274 -1.46109,-0.25547 -2.79045,-0.79199 -3.97805,-1.70205 -1.70216,-1.10536 -3.35514,-2.29283 -5.139,-3.26843 -1.9528,-1.00175 -3.95579,-2.02495 -6.13822,-2.40103 -1.78997,-0.15403 -3.58873,-0.0485 -5.38378,-0.0833 -1.64407,-7.9e-4 -3.28896,-0.0134 -4.93186,0.0615 -0.71918,0.04 -0.85969,0.039 -1.56918,0.11287 -0.26652,0.0278 -1.06159,0.14441 -0.79825,0.0949 11.56825,-2.17471 7.26134,-1.36739 4.75286,-0.79759 -1.72446,0.40876 -3.45705,0.7522 -5.06116,1.55103 -1.61514,0.59026 -3.34298,0.73367 -4.95312,1.3583 -1.7172,0.59318 -3.44056,1.16943 -5.16707,1.73459 -4.3463,0.78984 -8.63673,1.69493 -13.03007,2.09304 -1.68166,0.24067 -3.37168,0.35397 -5.05336,0.59503 -1.58896,0.21038 -3.17766,0.22537 -4.77975,0.1803 -1.70522,-0.0275 -3.41677,-0.0814 -5.0959,-0.40956 -2.08448,-0.43808 -4.0574,-1.20009 -6.10627,-1.76019 -1.99305,-0.54309 -4.00197,-1.09119 -5.85459,-2.0267 -1.52031,-0.9393 -3.03346,-1.88295 -4.59245,-2.75771 -1.39244,-0.87239 -2.78734,-1.43182 -4.46662,-1.29523 -1.61435,-5.3e-4 -3.2287,-0.007 -4.84305,-0.003 -1.77051,0.003 -3.54272,0.0161 -5.310196,0.12906 -0.307933,0.0244 -0.616275,0.044 -0.923801,0.0731 -0.295748,0.028 -1.177731,0.15301 -0.885795,0.098 2.11928,-0.39915 4.245772,-0.75907 6.370012,-1.13094 0.27794,-0.0487 -0.55443,0.10535 -0.831,0.16128 -0.29204,0.0591 -0.58166,0.13024 -0.87478,0.18371 -2.695217,0.49164 -5.393252,0.96771 -8.089883,1.45156 2.105909,-0.37678 4.211788,-0.75371 6.317723,-1.13035 0.30708,-0.0549 -0.614409,0.10843 -0.921149,0.1652 -0.320162,0.0593 -0.63899,0.12565 -0.959525,0.18284 -3.277134,0.58472 -6.517597,1.287 -9.820891,1.65061 -1.788144,0.15322 -3.586305,0.0481 -5.379447,0.0735 -1.591593,-1.8e-4 -3.183189,-5e-5 -4.774782,-0.002 -1.577414,0.002 -3.154826,5.2e-4 -4.732234,0.005 -1.663751,0.003 -3.32749,0.0109 -4.991246,0.0101 -1.811025,-0.003 -3.626747,-0.001 -5.430192,-0.18883 -1.967986,-0.25499 -3.890695,-0.72178 -5.779555,-1.33151 -2.120236,-0.49831 -4.257218,-0.96362 -6.285778,-1.777719 -2.239206,-0.918572 -4.421812,-1.948455 -6.505935,-3.186144 -1.901904,-1.18037 -3.519072,-2.641528 -4.681222,-4.580353 -1.090824,-1.745424 -2.139683,-3.569784 -2.707706,-5.5588 -0.08543,-0.413052 -0.30067,-1.385181 -0.33826,-1.823704 -0.09401,-1.096682 0.06994,-2.214952 -0.02077,-3.313353 -0.0097,-1.928122 -0.03417,-3.862041 0.13495,-5.784432 0.16586,-1.744935 0.47471,-3.460523 1.240097,-5.055489 0.654537,-1.617292 1.524376,-3.139964 2.110669,-4.786569 0.490497,-1.548006 0.97967,-3.09825 1.351907,-4.679506 0.340592,-1.578586 0.318325,-3.17155 0.277394,-4.781142 -0.02254,-1.408335 -0.0554,-2.823546 -0.435533,-4.191577 C 41.15521,50.374367 40.596249,48.682589 39.485673,47.343054 38.040898,45.699725 36.47616,44.272451 34.370574,43.520831 32.37306,42.690134 30.402705,41.79235 28.411218,40.947477 26.256638,39.991064 24.16425,38.883696 22.266468,37.47499 19.903233,35.699181 17.567382,33.838059 15.57648,31.64255 14.006482,29.975185 12.393068,28.318097 11.190104,26.354554 10.322135,24.809692 9.551803,23.182059 9.2451988,21.423008 9.064523,19.770568 9.0404481,18.11194 9.1636849,16.452823 9.2780143,14.840575 9.4977184,13.237934 10.14741,11.741059 10.869694,10.02971 11.731032,8.406232 12.760684,6.8552901 14.12464,5.0452895 15.566169,3.298998 16.986443,1.5328818 c 0,0 7.100532,-1.25201538 7.100532,-1.25201538 z"
       inkscape:connector-curvature="0" />
    <text
       xml:space="preserve"
       style="font-style:normal;font-weight:normal;font-size:10.58333302px;line-height:125%;font-family:sans-serif;letter-spacing:0px;word-spacing:0px;fill:#ff00ff;fill-opacity:1;stroke:none;stroke-width:0.26458332px;stroke-linecap:butt;stroke-linejoin:miter;stroke-opacity:1"
       x="25.352465"
       y="28.263876"
       id="text4709"><tspan
         sodipodi:role="line"
         id="tspan4707"
         x="25.352465"
         y="28.263876"
         style="fill:#ff00ff;stroke-width:0.26458332px">The Cloud</tspan></text>
    <text
       xml:space="preserve"
       style="font-style:normal;font-weight:normal;font-size:10.58333302px;line-height:125%;font-family:sans-serif;letter-spacing:0px;word-spacing:0px;fill:#00ff00;fill-opacity:1;stroke:none;stroke-width:0.26458332px;stroke-linecap:butt;stroke-linejoin:miter;stroke-opacity:1"
       x="13.310043"
       y="193.0549"
       id="text3842"><tspan
         sodipodi:role="line"
         id="tspan3840"
         x="13.310043"
         y="193.0549"
         style="fill:#00ff00;stroke-width:0.26458332px">&quot;What you </tspan><tspan
         sodipodi:role="line"
         x="13.310043"
         y="206.28407"
         style="fill:#00ff00;stroke-width:0.26458332px"
         id="tspan3844">      see&quot;</tspan></text>
    <path
       sodipodi:type="star"
       style="opacity:1;fill:#00ffff;fill-opacity:1;fill-rule:nonzero;stroke:none;stroke-width:1;stroke-miterlimit:4;stroke-dasharray:none;stroke-opacity:1"
       id="path3846"
       sodipodi:sides="5"
       sodipodi:cx="22.183407"
       sodipodi:cy="117.63132"
       sodipodi:r1="18.478624"
       sodipodi:r2="9.2393122"
       sodipodi:arg1="0.5404195"
       sodipodi:arg2="1.168738"
       inkscape:flatsided="false"
       inkscape:rounded="0"
       inkscape:randomized="0"
       d="m 38.028696,127.13849 -12.229823,-1.00463 -7.760862,9.5051 -2.823766,-11.9417 -11.4381233,-4.44378 10.4846403,-6.37575 0.691713,-12.25151 9.303629,8.00127 11.865626,-3.12806 -4.734681,11.32081 z"
       inkscape:transform-center-x="1.280998"
       inkscape:transform-center-y="0.50127427" />
    <path
       sodipodi:type="star"
       style="opacity:1;fill:#00ffff;fill-opacity:1;fill-rule:nonzero;stroke:none;stroke-width:1;stroke-miterlimit:4;stroke-dasharray:none;stroke-opacity:1"
       id="path3848"
       sodipodi:sides="5"
       sodipodi:cx="70.353088"
       sodipodi:cy="148.68808"
       sodipodi:r1="17.621786"
       sodipodi:r2="8.8108931"
       sodipodi:arg1="-2.483704"
       sodipodi:arg2="-1.8553855"
       inkscape:flatsided="false"
       inkscape:rounded="0"
       inkscape:randomized="0"
       d="m 56.409234,137.91328 11.47008,2.31831 8.412328,-8.1345 1.339611,11.62509 10.335918,5.4869 -10.642155,4.8664 -2.02438,11.52559 -7.916824,-8.6175 -11.587053,1.63631 5.749288,-10.1923 z"
       inkscape:transform-center-x="-1.5288758"
       inkscape:transform-center-y="0.16099647" />
  </g>
</svg>
